<svg height='1em' width='1em'  fill="#000000" xmlns="http://www.w3.org/2000/svg" xmlns:xlink="http://www.w3.org/1999/xlink" xml:space="preserve" version="1.1" style="shape-rendering:geometricPrecision;text-rendering:geometricPrecision;image-rendering:optimizeQuality;" viewBox="0 0 311 311" x="0px" y="0px" fill-rule="evenodd" clip-rule="evenodd"><defs><style type="text/css">
   
    .fil0 {fill:#000000}
   
  </style></defs><g><path class="fil0" d="M185 46c10,3 18,6 26,11l34 -26c2,-2 4,-1 6,0l28 29c2,1 2,4 1,6l-26 33c5,8 8,17 11,26l42 5c2,1 4,3 4,5l0 41c0,2 -2,4 -4,4l-42 5c-3,10 -6,18 -11,26l26 34c1,2 1,4 -1,6l-28 28c-2,2 -4,2 -6,1l-34 -26c-8,5 -16,8 -26,11l-5 42c0,2 -2,4 -4,4l-41 0c-2,0 -4,-2 -5,-4l-5 -42c-9,-3 -18,-6 -26,-11l-33 26c-2,1 -5,1 -6,-1l-29 -28c-1,-2 -2,-4 0,-6l26 -34c-5,-8 -8,-16 -11,-26l-42 -5c-2,0 -4,-2 -4,-4l0 -41c0,-2 2,-4 4,-5l42 -5c3,-9 6,-18 11,-26l-26 -33c-2,-2 -1,-5 0,-6l29 -29c1,-1 4,-2 6,0l33 26c8,-5 17,-8 26,-11l5 -42c1,-2 3,-4 5,-4l41 0c2,0 4,2 4,4l5 42zm-30 47c35,0 63,28 63,62 0,35 -28,63 -63,63 -34,0 -62,-28 -62,-63 0,-34 28,-62 62,-62z"></path></g></svg>