<svg height='1em' width='1em'  fill="#000000" xmlns="http://www.w3.org/2000/svg" viewBox="0 0 108.104 61.092" x="0px" y="0px"><g data-name="Layer 2" transform="translate(0 0)"><g transform="translate(0 0)"><path data-name="Path 7128" d="M53.389.162a2.5,2.5,0,0,0-1.773,0L0,19.52l2.91,1.1,48.9,18.261a2.5,2.5,0,0,0,1.773,0l45.24-16.989a2.531,2.531,0,0,0,0-4.751Z" transform="translate(0 0)"></path><path data-name="Path 7129" d="M17.182,27.872a1.259,1.259,0,0,0-1.692,1.191V43.629c0,6.376,14.038,11.493,31.541,11.493,11.845,0,22.052-2.382,27.52-5.834,2.558-1.651,4.061-3.655,4.061-5.658V28.86a1.259,1.259,0,0,0-1.706-1.178L47.464,38.7a1.232,1.232,0,0,1-.88,0ZM98.105,16.948a1.245,1.245,0,0,0-.853,1.029l-.636,5.049L94.45,38.363A1.259,1.259,0,0,0,95.7,39.8h5.672a1.259,1.259,0,0,0,1.245-1.435l-2.87-20.4a1.245,1.245,0,0,0-1.638-1.015Z" transform="translate(5.479 5.97)"></path></g></g></svg>