<svg height='100px' width='100px'  fill="#000000" xmlns="http://www.w3.org/2000/svg" data-name="Layer 1" viewBox="0 0 48 48" x="0px" y="0px"><title>leaf</title><path d="M35.62,12.92a.71.71,0,0,0-1.28-.06A7.7,7.7,0,0,1,27.6,16.8H24a8.64,8.64,0,0,0-8.64,8.64c0,.31,0,.62.07.92a21.56,21.56,0,0,1,12.89-3.8.72.72,0,1,1,0,1.44C17,24,12.21,30.93,11.15,33.54a1.44,1.44,0,0,0,2.67,1.09,11.76,11.76,0,0,1,3.23-4.07A8.63,8.63,0,0,0,24.92,34c7.07-.51,12-6.85,12-14.61A16.42,16.42,0,0,0,35.62,12.92Z"></path></svg>