<svg height='1em' width='1em'  fill="#000000" xmlns:dc="http://purl.org/dc/elements/1.1/" xmlns:cc="http://creativecommons.org/ns#" xmlns:rdf="http://www.w3.org/1999/02/22-rdf-syntax-ns#" xmlns:svg="http://www.w3.org/2000/svg" xmlns="http://www.w3.org/2000/svg" xmlns:sodipodi="http://sodipodi.sourceforge.net/DTD/sodipodi-0.dtd" xmlns:inkscape="http://www.inkscape.org/namespaces/inkscape" version="1.1" x="0px" y="0px" viewBox="0 0 755.07397 730.729" enable-background="new 0 0 2000 2000" xml:space="preserve"><path style="" d="m 569.251,0.002 c -17.285,0 -31.258,13.975 -31.258,31.26 0,17.285 13.973,31.257 31.258,31.257 l 79.123,0 -63.66,63.676 C 546.254,97.107 499.626,81.366 450.597,81.366 c -40.676,0 -79.675,10.811 -113.735,31.06 -34.051,-20.251 -73.031,-31.06 -113.658,-31.06 -59.638,0 -115.68,23.224 -157.815,65.388 C 23.254,188.889 0,244.933 0,304.509 c 0,59.606 23.254,115.65 65.389,157.815 34.665,34.665 78.747,56.496 126.497,63.151 l 0,49.148 -62.329,0 c -17.285,0 -31.257,14.003 -31.257,31.257 0,17.285 14.035,31.257 31.257,31.257 l 62.329,0 0,62.332 c 0,17.285 13.972,31.26 31.257,31.26 17.285,0 31.257,-14.005 31.257,-31.26 l 0,-62.344 62.326,0 c 17.285,0 31.257,-14.002 31.257,-31.256 0,-17.285 -13.972,-31.258 -31.257,-31.258 l -62.326,0 0,-49.128 c 29.302,-4.079 57.233,-13.882 82.458,-28.862 34.061,20.231 73.062,31.03 113.739,31.03 59.608,0 115.651,-23.226 157.755,-65.33 42.196,-42.197 65.33,-98.239 65.33,-157.814 0,-49.059 -15.725,-95.675 -44.775,-134.112 l 63.653,-63.671 0,79.164 c 0,17.285 13.972,31.255 31.257,31.255 17.253,0 31.257,-13.97 31.257,-31.255 l 0,-154.629 C 755.074,13.974 741.102,0 723.817,0 L 569.251,0 Z M 223.204,143.878 c 21.277,0 41.908,4.118 60.996,11.963 -36.692,40.944 -56.807,93.276 -56.807,148.668 0,55.411 20.106,107.735 56.783,148.701 -19.086,7.825 -39.706,11.927 -60.972,11.927 -42.916,0 -83.269,-16.69 -113.62,-47.008 -30.35,-30.351 -47.072,-70.705 -47.072,-113.62 0,-42.885 16.722,-83.207 47.072,-113.557 30.351,-30.351 70.704,-47.074 113.62,-47.074 z m 227.393,0 c 42.949,0 83.239,16.723 113.495,47.074 30.35,30.35 47.075,70.672 47.075,113.557 0,42.915 -16.661,83.269 -47.011,113.62 -30.35,30.318 -70.641,47.008 -113.559,47.008 -21.272,0 -41.913,-4.105 -61.021,-11.933 36.712,-40.992 56.711,-93.314 56.711,-148.695 0,-55.427 -20.064,-107.74 -56.753,-148.656 19.118,-7.851 39.775,-11.975 61.063,-11.975 z m -113.756,47.219 c 30.26,30.335 46.93,70.594 46.93,113.412 0,42.863 -16.62,83.166 -46.899,113.505 -30.281,-30.339 -46.966,-70.641 -46.966,-113.505 0,-42.818 16.674,-83.077 46.935,-113.412 z" fill="#000000"></path></svg>