<svg height='100px' width='100px'  fill="#000000" xmlns="http://www.w3.org/2000/svg" xmlns:xlink="http://www.w3.org/1999/xlink" version="1.1" x="0px" y="0px" viewBox="0 0 24 24" enable-background="new 0 0 24 24" xml:space="preserve"><g><path d="M21,22h-1v-1c0-0.553-0.447-1-1-1h-8c-0.553,0-1,0.447-1,1v1H9c-0.552,0-1,0.447-1,1v1h14v-1C22,22.447,21.553,22,21,22z"></path><path d="M14,12v1l1,1l5-5l-1-1h-1l-4-4V3l-1-1L8,7l0.998,0.998L10,8l1.293,1.293l-9,9c-0.391,0.391-0.391,1.023,0,1.414   C2.488,19.902,2.744,20,3,20s0.512-0.098,0.707-0.293l9-9L14,12z"></path></g></svg>