<svg height='100px' width='100px'  fill="#000000" xmlns="http://www.w3.org/2000/svg" data-name="Layer 1" viewBox="0 0 48 48" x="0px" y="0px"><title>Data</title><path d="M7.25,24.11a.06.06,0,0,0-.06.06V41.76a0,0,0,0,0,0,.05h9.41a.06.06,0,0,0,.06-.06V24.17a.06.06,0,0,0-.06-.06Z"></path><path d="M19.41,6.19a.06.06,0,0,0-.05.06V41.76s0,.05,0,.05h9.41a.06.06,0,0,0,.06-.06V6.25a.06.06,0,0,0-.06-.06Z"></path><path d="M40.75,13.49H31.36a.06.06,0,0,0-.06.06V41.76a0,0,0,0,0,0,.05h9.41a.06.06,0,0,0,.06-.06V13.55A.06.06,0,0,0,40.75,13.49Z"></path></svg>