<svg height='100px' width='100px'  fill="#000000" xmlns:dc="http://purl.org/dc/elements/1.1/" xmlns:cc="http://creativecommons.org/ns#" xmlns:rdf="http://www.w3.org/1999/02/22-rdf-syntax-ns#" xmlns:svg="http://www.w3.org/2000/svg" xmlns="http://www.w3.org/2000/svg" xmlns:sodipodi="http://sodipodi.sourceforge.net/DTD/sodipodi-0.dtd" xmlns:inkscape="http://www.inkscape.org/namespaces/inkscape" version="1.1" x="0px" y="0px" viewBox="0 0 100 100"><g transform="translate(0,-952.36218)"><path style="color:#000000;enable-background:accumulate;" d="m 89,956.36216 0,92.00004 -22,0 0,-22 -10,0 0,22 -22,0 0,-92.00004 z m -6,6 -10,0 0,10 10,0 z m -16,0 -10,0 0,10 10,0 z m -16,0 -10,0 0,10 10,0 z m -18,12 0,74.00004 -22,0 0,-74.00004 z m 50,4 -10,0 0,10 10,0 z m -16,0 -10,0 0,10 10,0 z m -16,0 -10,0 0,10 10,0 z m -24,2 -10,0 0,10 10,0 z m 56,14 -10,0 0,10.00004 10,0 z m -16,0 -10,0 0,10.00004 10,0 z m -16,0 -10,0 0,10.00004 10,0 z m -24,2 -10,0 0,10.00004 10,0 z m 56,14.00004 -10,0 0,10 10,0 z m -16,0 -10,0 0,10 10,0 z m -16,0 -10,0 0,10 10,0 z m -24,2 -10,0 0,10 10,0 z m 0,16 -10,0 0,10 10,0 z" fill="#000000" stroke="none" marker="none" visibility="visible" display="inline" overflow="visible"></path></g></svg>